<?xml version="1.0" encoding="utf-8"?>
<svg viewBox="0 0 500 500" xmlns="http://www.w3.org/2000/svg">
  <path fill-rule="evenodd" clip-rule="evenodd" d="M 99.351 73.871 C 99.628 62.331 108.946 53.066 120.386 53.066 C 131.844 53.066 141.144 62.336 141.421 73.871 C 141.511 77.638 138.573 80.766 134.857 80.858 C 131.141 80.949 128.057 77.97 127.966 74.203 C 127.866 70.048 124.514 66.71 120.386 66.71 C 116.292 66.71 112.947 70.011 112.809 74.128 C 112.831 79.648 114.896 85.078 117.242 89.393 C 118.189 91.136 119.245 92.818 120.403 94.429 C 120.802 94.984 121.218 95.527 121.649 96.058 L 121.695 96.113 L 121.693 96.11 L 121.69 96.106 L 121.697 96.114 C 124.13 98.951 123.84 103.251 121.046 105.726 C 118.257 108.207 113.976 107.915 111.55 105.079 L 116.617 100.589 C 111.55 105.079 111.549 105.077 111.547 105.075 L 111.539 105.066 L 111.523 105.047 L 111.48 104.997 L 111.35 104.841 C 111.207 104.669 111.066 104.495 110.927 104.319 C 110.45 103.718 109.987 103.106 109.539 102.483 C 108.042 100.403 106.678 98.231 105.455 95.979 C 102.544 90.624 99.349 82.814 99.349 74.038 L 99.349 73.954 L 99.351 73.871 Z M 121.688 96.104 L 121.689 96.106 L 121.689 96.104 Z" style="fill: rgb(255, 255, 255);"/>
  <path fill-rule="evenodd" clip-rule="evenodd" d="M 141.734 73.876 L 141.734 74.779 C 141.736 78.498 138.723 81.515 135.004 81.517 C 131.285 81.515 128.271 78.498 128.274 74.779 L 128.274 73.699 L 128.277 73.617 C 128.554 62.219 137.872 53.066 149.312 53.066 C 160.752 53.066 170.07 62.219 170.347 73.617 L 170.349 73.699 L 170.349 73.781 C 170.349 80.934 168.119 87.349 166.064 91.787 C 165.206 93.642 164.243 95.447 163.178 97.191 C 162.764 97.867 162.331 98.53 161.88 99.181 C 161.837 99.242 161.793 99.303 161.75 99.363 L 161.737 99.38 L 161.729 99.391 C 161.729 99.393 161.727 99.394 156.522 95.577 L 161.727 99.394 C 159.533 102.396 155.32 103.048 152.322 100.85 C 149.316 98.645 148.669 94.418 150.879 91.415 C 151.165 90.999 151.441 90.574 151.705 90.143 C 152.497 88.845 153.214 87.502 153.852 86.121 C 155.449 82.671 156.871 78.305 156.889 73.871 C 156.751 69.804 153.406 66.544 149.312 66.544 C 145.216 66.544 141.87 69.807 141.734 73.876 Z" style="fill: rgb(255, 255, 255);"/>
  <path d="M 156.324 103.029 C 161.722 103.029 165.096 97.185 162.397 92.51 C 161.144 90.341 158.829 89.004 156.324 89.004 C 150.925 89.004 147.552 94.848 150.251 99.523 C 151.503 101.693 153.818 103.029 156.324 103.029 Z" style="fill: rgb(255, 255, 255);"/>
  <path d="M 226.591 64.01 C 230.397 64.01 233.465 65.228 235.757 67.665 C 238.068 70.101 239.224 73.331 239.224 77.373 L 239.224 97.177 L 229.241 97.177 L 229.241 78.205 C 229.241 76.561 228.823 75.285 228.006 74.337 C 227.189 73.389 225.993 72.925 224.439 72.925 C 222.805 72.925 221.53 73.466 220.613 74.53 C 219.696 75.613 219.258 77.083 219.258 78.978 L 219.258 97.177 L 209.275 97.177 L 209.275 78.205 C 209.275 76.561 208.857 75.285 208.04 74.337 C 207.223 73.389 206.027 72.925 204.473 72.925 C 202.839 72.925 201.564 73.466 200.647 74.53 C 199.73 75.613 199.292 77.083 199.292 78.978 L 199.292 97.177 L 189.349 97.177 L 189.349 64.899 L 199.332 64.899 L 199.332 67.859 C 201.145 65.286 204.114 63.99 208.239 63.99 C 212.105 63.99 214.994 65.402 216.947 68.245 C 218.979 65.421 222.187 64.01 226.591 64.01 Z M 274.513 93.135 C 271.106 96.422 266.941 98.066 262.019 98.066 C 257.098 98.066 252.933 96.422 249.526 93.135 C 246.118 89.847 244.405 85.805 244.405 81.028 C 244.405 76.251 246.118 72.228 249.526 68.922 C 252.933 65.634 257.098 63.99 262.019 63.99 C 266.941 63.99 271.106 65.634 274.513 68.922 C 277.92 72.209 279.634 76.252 279.634 81.028 C 279.634 85.824 277.94 89.847 274.513 93.135 Z M 256.56 86.521 C 258.014 87.932 259.847 88.648 262.019 88.648 C 264.191 88.648 266.005 87.932 267.479 86.521 C 268.954 85.109 269.671 83.271 269.671 81.028 C 269.671 78.785 268.934 76.967 267.479 75.536 C 266.025 74.105 264.191 73.409 262.019 73.409 C 259.847 73.409 258.034 74.124 256.56 75.536 C 255.085 76.948 254.368 78.785 254.368 81.028 C 254.368 83.272 255.105 85.108 256.56 86.521 Z M 295.256 70.643 C 295.874 68.573 297.129 66.988 299.022 65.905 C 300.915 64.802 302.987 64.261 305.239 64.261 L 305.239 75.226 C 302.808 74.839 300.536 75.246 298.424 76.426 C 296.312 77.605 295.276 79.655 295.276 82.594 L 295.276 97.176 L 285.293 97.176 L 285.293 64.899 L 295.276 64.899 L 295.276 70.643 L 295.256 70.643 Z M 333.036 64.899 L 343.019 64.899 L 343.019 97.157 L 333.036 97.157 L 333.036 94.121 C 330.685 96.751 327.377 98.066 323.133 98.066 C 318.749 98.066 315.003 96.422 311.894 93.135 C 308.786 89.847 307.232 85.805 307.232 81.028 C 307.232 76.251 308.786 72.228 311.894 68.922 C 315.003 65.634 318.749 63.99 323.133 63.99 C 327.397 63.99 330.685 65.305 333.036 67.935 L 333.036 64.899 Z M 319.406 86.791 C 320.861 88.203 322.774 88.919 325.125 88.919 C 327.476 88.919 329.389 88.203 330.844 86.791 C 332.299 85.379 333.036 83.465 333.036 81.047 C 333.036 78.63 332.299 76.715 330.844 75.304 C 329.389 73.892 327.476 73.176 325.125 73.176 C 322.774 73.176 320.861 73.892 319.406 75.304 C 317.952 76.716 317.215 78.63 317.215 81.048 C 317.195 83.446 317.932 85.36 319.406 86.791 Z M 350.312 97.176 L 350.312 50.066 L 360.295 50.066 L 360.295 97.176 L 350.312 97.176 Z M 376.813 60.354 C 375.638 61.495 374.223 62.056 372.589 62.056 C 370.955 62.056 369.54 61.496 368.365 60.354 C 367.189 59.214 366.611 57.84 366.611 56.254 C 366.611 54.669 367.189 53.296 368.365 52.154 C 369.54 51.014 370.955 50.453 372.589 50.453 C 374.223 50.453 375.638 51.033 376.813 52.155 C 377.989 53.295 378.567 54.669 378.567 56.255 C 378.567 57.86 377.989 59.213 376.813 60.355 Z M 367.608 97.176 L 367.608 64.899 L 377.591 64.899 L 377.591 97.157 L 367.608 97.157 L 367.608 97.177 Z M 393.99 74.336 C 393.99 74.976 394.548 75.516 395.683 75.923 C 396.819 76.329 398.174 76.735 399.768 77.141 C 401.362 77.547 402.956 78.069 404.551 78.727 C 406.145 79.365 407.5 80.429 408.635 81.917 C 409.771 83.407 410.329 85.264 410.329 87.507 C 410.329 90.988 408.994 93.618 406.344 95.417 C 403.694 97.196 400.406 98.086 396.5 98.086 C 389.486 98.086 384.724 95.533 382.213 90.408 L 390.861 85.631 C 391.738 88.165 393.631 89.441 396.52 89.441 C 398.911 89.441 400.107 88.783 400.107 87.449 C 400.107 86.811 399.549 86.269 398.413 85.844 C 397.075 85.352 395.711 84.932 394.328 84.587 C 392.698 84.166 391.1 83.63 389.546 82.982 C 387.952 82.324 386.597 81.28 385.461 79.849 C 384.326 78.418 383.768 76.677 383.768 74.627 C 383.768 71.262 385.023 68.671 387.534 66.814 C 390.044 64.957 393.133 64.048 396.799 64.048 C 399.549 64.048 402.06 64.648 404.311 65.828 C 406.563 67.008 408.396 68.728 409.771 70.953 L 401.263 75.401 C 400.207 73.505 398.712 72.558 396.799 72.558 C 394.926 72.519 393.99 73.118 393.99 74.337 Z" style="fill: rgb(255, 255, 255);"/>
</svg>